<svg width="266" height="196" viewBox="0 0 266 196" fill="none" xmlns="http://www.w3.org/2000/svg">
<g clip-path="url(#clip0)">
<path d="M129.594 193.947L8.9132 122.648C5.07128 120.489 1.77743 116.95 5.52199 114.628L126.632 44.8471C128.448 43.7204 131.206 42.982 133.057 44.0595L259.72 117.561C263.562 119.791 264.251 126.003 260.423 128.253L145.498 193.835C143.085 195.234 140.35 195.98 137.561 196C134.772 196.019 132.026 195.312 129.594 193.947V193.947Z" fill="#5B36A0"/>
<path d="M129.594 190.656L8.9132 119.355C5.07128 117.195 1.77743 113.656 5.52199 111.335L126.632 41.5544C128.448 40.4287 131.206 39.6903 133.057 40.7668L259.72 114.269C263.562 116.499 264.251 122.71 260.423 124.962L145.498 190.542C143.086 191.941 140.35 192.688 137.561 192.707C134.772 192.727 132.027 192.02 129.594 190.655V190.656Z" fill="#6862E6"/>
<path style="mix-blend-mode:multiply" opacity="0.25" d="M139.545 96.5839L115.732 110.168C115.732 110.168 152.415 132.547 159.916 135.699L173.631 116" fill="url(#paint0_linear)"/>
<path style="mix-blend-mode:multiply" opacity="0.25" d="M131.319 161.756L107.499 148.199L83.6796 161.784C83.6796 161.784 96.0849 169.354 107.943 176.305C115.472 170.979 123.008 165.597 131.319 161.755V161.756Z" fill="url(#paint1_linear)"/>
<path style="mix-blend-mode:multiply" opacity="0.46" d="M79.9996 78.0395L64.8912 86.6575C64.8912 86.6575 66.1711 94.558 73.6733 97.7096L93.4539 85.0461" fill="url(#paint2_linear)"/>
<path d="M87.3946 86.6575C92.4273 86.6575 96.5071 83.785 96.5071 80.2415C96.5071 76.6981 92.4273 73.8256 87.3946 73.8256C82.3619 73.8256 78.2821 76.6981 78.2821 80.2415C78.2821 83.785 82.3619 86.6575 87.3946 86.6575Z" fill="#68E1FD"/>
<path d="M87.3881 79.2494C91.1581 79.2494 94.2143 77.999 94.2143 76.4565C94.2143 74.9141 91.1581 73.6637 87.3881 73.6637C83.6181 73.6637 80.5619 74.9141 80.5619 76.4565C80.5619 77.999 83.6181 79.2494 87.3881 79.2494Z" fill="#974C26"/>
<path d="M87.1419 71.7996C87.1419 70.5405 87.0992 69.2803 87.0008 68.0212C86.9723 67.693 86.9417 67.367 86.9089 67.0432L86.8389 66.4032C86.8389 66.214 86.7404 65.6998 86.7404 65.7491C86.6978 65.4909 86.6529 65.2349 86.607 64.9833C85.8626 60.7081 84.2015 56.6448 81.7378 53.0725C80.8106 55.2783 80.3481 57.6516 80.3792 60.0442C80.3792 60.7476 80.4349 61.451 80.4918 62.1117V62.5274C80.7691 64.1594 81.1931 65.7631 81.7586 67.3189C82.1617 68.4529 82.6533 69.5535 83.2289 70.6105C83.85 71.8006 84.5238 72.9624 85.2483 74.0925C85.8117 74.9786 86.3466 75.7663 86.8892 76.52C87.0577 74.9513 87.1342 73.3749 87.1408 71.7996H87.1419ZM83.5603 57.6375C83.5964 57.4754 83.5964 57.3073 83.5603 57.1452C83.7332 57.3235 83.9049 57.5062 84.0745 57.6944C83.905 57.6461 83.7286 57.6269 83.5527 57.6375H83.5603Z" fill="#999A1C"/>
<path d="M89.4852 72.7699C90.1886 71.7088 90.8088 70.6586 91.4061 69.5133C91.5604 69.2223 91.7113 68.9313 91.8568 68.6403L92.1445 68.0562L92.4191 67.4512L92.7221 66.7478C94.4087 62.7458 95.2081 58.4259 95.0653 54.0854C93.0874 55.4398 91.4104 57.1879 90.1393 59.2204C89.7746 59.8067 89.4341 60.4078 89.1187 61.0221L88.9787 61.2814L88.9426 61.3941C88.8091 61.7113 88.6756 62.0285 88.5487 62.3513C88.0821 63.5771 87.7038 64.8346 87.4165 66.1144C87.1424 67.2875 86.961 68.4802 86.8739 69.6817C86.7497 71.0171 86.6887 72.3576 86.6912 73.6987C86.6912 74.7467 86.6912 75.7039 86.7547 76.625C87.69 75.3801 88.633 74.1002 89.4852 72.7699V72.7699ZM94.1289 58.9185C94.2394 58.7949 94.3215 58.6483 94.3685 58.4886C94.4199 58.7325 94.4648 58.9677 94.502 59.1931C94.3926 59.0837 94.2668 58.9907 94.13 58.9185H94.1289Z" fill="#999A1C"/>
<path d="M89.4359 75.9074C90.1437 75.5562 90.8471 75.1766 91.5472 74.7686L92.0745 74.4448L92.4191 74.226L92.7571 73.9875L93.1509 73.6987C95.3508 72.0844 97.1753 70.0133 98.4992 67.6273C96.9971 67.7237 95.531 68.1285 94.1923 68.8165C93.8051 69.0134 93.432 69.2322 93.059 69.4564L92.8982 69.5549L92.8413 69.6041L92.3206 69.9914C91.6719 70.5022 91.0604 71.0601 90.4915 71.6585C89.9653 72.2033 89.4829 72.7897 89.0475 73.4099C88.5592 74.1006 88.0901 74.8046 87.6407 75.5212C87.3038 76.0835 87.0008 76.6108 86.7328 77.1249C87.6407 76.7453 88.5487 76.3504 89.4348 75.9074H89.4359ZM96.4152 69.9279C96.5149 69.897 96.6064 69.8443 96.6832 69.7737C96.632 69.9231 96.5758 70.0709 96.5148 70.2167C96.4964 70.1185 96.4632 70.0237 96.4163 69.9356V69.9279H96.4152ZM87.1419 71.7996C87.1419 70.5405 87.0992 69.2803 87.0008 68.0212C86.9723 67.693 86.9417 67.367 86.9089 67.0432L86.8389 66.4032C86.8389 66.214 86.7404 65.6998 86.7404 65.7491C86.6978 65.4909 86.6529 65.2349 86.607 64.9833C85.8626 60.7081 84.2015 56.6448 81.7378 53.0725C80.8106 55.2783 80.3481 57.6516 80.3792 60.0442C80.3792 60.7476 80.4349 61.451 80.4918 62.1117V62.5274C80.7691 64.1594 81.1931 65.7631 81.7586 67.3189C82.1617 68.4529 82.6533 69.5535 83.2289 70.6105C83.85 71.8006 84.5238 72.9624 85.2483 74.0925C85.8117 74.9786 86.3466 75.7663 86.8892 76.52C87.0577 74.9513 87.1342 73.3749 87.1408 71.7996H87.1419ZM83.5603 57.6375C83.5964 57.4754 83.5964 57.3073 83.5603 57.1452C83.7332 57.3235 83.9049 57.5062 84.0745 57.6944C83.905 57.6461 83.7286 57.6269 83.5527 57.6375H83.5603Z" fill="#999A1C"/>
<path d="M89.4852 72.7699C90.1886 71.7088 90.8088 70.6586 91.4061 69.5133C91.5604 69.2223 91.7113 68.9313 91.8568 68.6403L92.1445 68.0562L92.4191 67.4512L92.7221 66.7478C94.4087 62.7458 95.2081 58.4259 95.0653 54.0854C93.0874 55.4398 91.4104 57.1879 90.1393 59.2204C89.7746 59.8067 89.4341 60.4078 89.1187 61.0221L88.9787 61.2814L88.9426 61.3941C88.8091 61.7113 88.6756 62.0285 88.5487 62.3513C88.0821 63.5771 87.7038 64.8346 87.4165 66.1144C87.1424 67.2875 86.961 68.4802 86.8739 69.6817C86.7497 71.0171 86.6887 72.3576 86.6912 73.6987C86.6912 74.7467 86.6912 75.7039 86.7547 76.625C87.69 75.3801 88.633 74.1002 89.4852 72.7699V72.7699ZM94.1289 58.9185C94.2394 58.7949 94.3215 58.6483 94.3685 58.4886C94.4199 58.7325 94.4648 58.9677 94.502 59.1931C94.3926 59.0837 94.2668 58.9907 94.13 58.9185H94.1289Z" fill="#999A1C"/>
<path d="M89.4359 75.9074C90.1437 75.5562 90.8471 75.1766 91.5472 74.7686L92.0745 74.4448L92.4191 74.226L92.7571 73.9875L93.1509 73.6987C95.3508 72.0844 97.1753 70.0133 98.4992 67.6273C96.9972 67.7237 95.5311 68.1285 94.1924 68.8165C93.8051 69.0134 93.4321 69.2322 93.059 69.4564L92.8982 69.5549L92.8413 69.6041L92.3206 69.9914C91.6719 70.5022 91.0604 71.0601 90.4916 71.6585C89.9654 72.2033 89.4829 72.7897 89.0476 73.4099C88.5592 74.1006 88.0901 74.8046 87.6408 75.5212C87.3038 76.0835 87.0008 76.6108 86.7328 77.1249C87.6408 76.7453 88.5487 76.3504 89.4348 75.9074H89.4359ZM96.4152 69.9279C96.5149 69.897 96.6065 69.8443 96.6833 69.7737C96.632 69.9232 96.5758 70.0709 96.5148 70.2167C96.4964 70.1185 96.4632 70.0237 96.4163 69.9356V69.9279H96.4152Z" fill="#999A1C"/>
<path d="M149.002 91.2794L135.822 97.6111C135.326 97.8498 134.904 98.2192 134.602 98.6796C134.299 99.1401 134.128 99.6741 134.106 100.225C134.085 100.775 134.213 101.321 134.478 101.804C134.743 102.286 135.135 102.688 135.611 102.965L166.847 121.186C167.523 121.58 168.324 121.699 169.085 121.516C169.845 121.334 170.506 120.865 170.929 120.208L178.521 108.403" fill="#A1482D"/>
<path d="M220.687 60.7399L115.592 0.1969C114.871 -0.217552 114.054 -0.435182 113.222 -0.43417C112.391 -0.433158 111.574 -0.213538 110.854 0.202668C110.134 0.618874 109.536 1.21704 109.12 1.93719C108.704 2.65733 108.485 3.47415 108.485 4.30574V67.2893C108.485 68.6972 109.235 69.9979 110.454 70.7024L222.495 135.361C222.882 135.584 223.32 135.702 223.766 135.702C224.213 135.702 224.651 135.585 225.038 135.362C225.425 135.138 225.746 134.817 225.969 134.431C226.192 134.044 226.309 133.605 226.309 133.159V70.4344C226.307 68.4667 225.786 66.5343 224.799 64.8321C223.812 63.13 222.393 61.7185 220.686 60.7399H220.687Z" fill="#F47B56"/>
<path d="M115.599 4.9599L217.52 63.5819C218.608 64.2084 219.512 65.1105 220.141 66.1975C220.77 67.2844 221.101 68.5179 221.101 69.7736V116.985C221.101 117.437 220.981 117.88 220.755 118.272C220.529 118.663 220.205 118.988 219.814 119.214C219.423 119.441 218.979 119.561 218.527 119.562C218.075 119.563 217.631 119.446 217.239 119.222L113.297 59.6219C112.908 59.3988 112.585 59.077 112.36 58.689C112.135 58.301 112.017 57.8605 112.017 57.4121V7.03511C112.017 6.61578 112.127 6.20377 112.336 5.84042C112.546 5.47706 112.847 5.17513 113.21 4.9649C113.572 4.75468 113.984 4.64355 114.403 4.64267C114.823 4.6418 115.235 4.7512 115.599 4.9599V4.9599Z" fill="white"/>
<path d="M158.483 94.009C159.685 93.7776 160.445 92.4766 160.18 91.1032C159.916 89.7298 158.727 88.804 157.525 89.0355C156.323 89.2669 155.563 90.5679 155.828 91.9414C156.092 93.3148 157.281 94.2405 158.483 94.009Z" fill="#AB643C"/>
<path opacity="0.32" d="M142.993 69.0134L190.357 97.4635L213.756 83.8647L171.95 59.5377" fill="url(#paint3_linear)"/>
<path d="M201.525 63.35L150.318 32.1356C150.044 31.9772 149.732 31.8951 149.416 31.8978C149.099 31.9004 148.789 31.9878 148.518 32.1508C148.246 32.3138 148.024 32.5464 147.873 32.8246C147.722 33.1028 147.648 33.4163 147.659 33.7327V51.5169C147.656 51.8388 147.738 52.1558 147.894 52.437C148.051 52.7183 148.278 52.9541 148.552 53.1217L199.752 83.6754C200.021 83.8282 200.326 83.9075 200.635 83.9055C200.945 83.9035 201.248 83.8203 201.516 83.6641C201.783 83.5079 202.004 83.2842 202.158 83.0155C202.311 82.7468 202.392 82.4425 202.391 82.133L202.658 65.5521C202.677 65.1182 202.583 64.6867 202.385 64.3004C202.186 63.9141 201.89 63.5864 201.525 63.35V63.35Z" fill="#E2AC00"/>
<path d="M189.274 72.5019C191.111 75.0705 194.34 75.7881 196.48 74.1133C198.619 72.4396 198.865 68.9991 197.028 66.4382C195.191 63.8784 191.962 63.1531 189.822 64.8279C187.684 66.5017 187.438 69.9355 189.274 72.503V72.5019Z" fill="white"/>
<path d="M184.25 60.1776L163.364 47.606C163.185 47.524 162.982 47.5113 162.794 47.5704C162.606 47.6296 162.447 47.7563 162.347 47.926C162.248 48.0958 162.214 48.2966 162.254 48.4895C162.294 48.6824 162.404 48.8537 162.562 48.9702L183.448 61.5417C183.627 61.6238 183.83 61.6365 184.018 61.5774C184.206 61.5182 184.365 61.3915 184.465 61.2217C184.565 61.052 184.598 60.8512 184.558 60.6583C184.518 60.4654 184.409 60.2941 184.25 60.1776V60.1776ZM183.391 65.2852L154.604 47.9572C154.428 47.8952 154.235 47.8974 154.06 47.9633C153.885 48.0293 153.739 48.1547 153.647 48.3177C153.556 48.4806 153.524 48.6706 153.559 48.8544C153.593 49.0381 153.692 49.2039 153.836 49.3224L182.589 66.657C182.769 66.7404 182.973 66.754 183.161 66.6951C183.35 66.6363 183.51 66.5092 183.61 66.3387C183.711 66.1681 183.744 65.9664 183.703 65.7728C183.662 65.5793 183.551 65.4078 183.391 65.2918V65.2852Z" fill="#F2F2F2"/>
<path d="M191.308 66.797L140.129 35.5902C139.855 35.4316 139.543 35.3492 139.227 35.3517C138.91 35.3543 138.6 35.4416 138.328 35.6046C138.057 35.7676 137.834 36.0004 137.682 36.2787C137.531 36.5571 137.457 36.8708 137.469 37.1874V54.9639C137.461 55.6202 137.797 56.2318 138.355 56.5753L189.555 87.129C189.827 87.2851 190.136 87.3662 190.449 87.3637C190.763 87.3613 191.07 87.2755 191.339 87.1152C191.609 86.9548 191.83 86.7257 191.982 86.4513C192.134 86.1769 192.209 85.8671 192.202 85.5537L192.469 68.9707C192.48 68.5388 192.38 68.1113 192.176 67.7302C191.973 67.3491 191.673 67.0275 191.308 66.797Z" fill="#F47B56"/>
<path d="M179.057 75.95C180.894 78.5175 184.123 79.2351 186.263 77.5614C188.401 75.8877 188.647 72.4461 186.811 69.8852C184.974 67.3254 181.745 66.6001 179.605 68.2749C177.466 69.9487 177.22 73.3825 179.057 75.95Z" fill="white"/>
<path d="M174.032 63.6246L153.132 51.0531C152.952 50.9697 152.748 50.9561 152.56 51.0149C152.371 51.0738 152.211 51.2009 152.111 51.3714C152.01 51.5419 151.977 51.7436 152.018 51.9372C152.058 52.1308 152.17 52.3023 152.33 52.4183L173.215 64.9898C173.395 65.0732 173.599 65.0868 173.787 65.028C173.976 64.9691 174.136 64.842 174.236 64.6715C174.337 64.501 174.37 64.2992 174.329 64.1057C174.289 63.9121 174.177 63.7406 174.017 63.6246H174.031H174.032ZM173.167 68.7672L144.386 51.4119C144.206 51.3285 144.002 51.3149 143.814 51.3737C143.625 51.4326 143.465 51.5597 143.364 51.7302C143.264 51.9007 143.231 52.1025 143.272 52.296C143.312 52.4896 143.424 52.6611 143.584 52.7771L172.372 70.104C172.551 70.1874 172.755 70.201 172.944 70.1421C173.133 70.0833 173.293 69.9562 173.393 69.7857C173.493 69.6151 173.526 69.4134 173.486 69.2199C173.445 69.0263 173.334 68.8548 173.174 68.7388L173.167 68.7672Z" fill="#F2F2F2"/>
<path d="M178.465 68.8941L127.273 37.6862C126.999 37.5276 126.687 37.4452 126.371 37.4477C126.054 37.4503 125.744 37.5376 125.472 37.7006C125.201 37.8636 124.978 38.0964 124.826 38.3748C124.675 38.6531 124.601 38.9668 124.613 39.2834V57.061C124.611 57.3827 124.692 57.6995 124.848 57.9805C125.005 58.2615 125.232 58.4972 125.506 58.6647L176.706 89.2184C176.978 89.3746 177.286 89.4556 177.6 89.4532C177.913 89.4507 178.22 89.365 178.49 89.2046C178.759 89.0443 178.981 88.8151 179.133 88.5407C179.284 88.2663 179.36 87.9565 179.352 87.6432L179.619 71.0601C179.642 70.185 179.204 69.3634 178.465 68.8941V68.8941Z" fill="#68E1FD"/>
<path d="M178.465 68.8941L127.273 37.6862C126.999 37.5276 126.687 37.4452 126.371 37.4477C126.054 37.4503 125.744 37.5376 125.472 37.7006C125.201 37.8636 124.978 38.0964 124.826 38.3748C124.675 38.6531 124.601 38.9668 124.613 39.2834V57.061C124.611 57.3827 124.692 57.6995 124.848 57.9805C125.005 58.2615 125.232 58.4972 125.506 58.6647L176.706 89.2184C176.978 89.3746 177.286 89.4556 177.6 89.4532C177.913 89.4507 178.22 89.365 178.49 89.2046C178.759 89.0443 178.981 88.8151 179.133 88.5407C179.284 88.2663 179.36 87.9565 179.352 87.6432L179.619 71.0601C179.642 70.185 179.204 69.3634 178.465 68.8941V68.8941Z" fill="#68E1FD"/>
<path d="M166.207 78.046C168.044 80.6146 171.274 81.3322 173.413 79.6574C175.552 77.9837 175.798 74.5432 173.961 71.9823C172.126 69.4225 168.895 68.6972 166.757 70.3709C164.617 72.0447 164.392 75.4796 166.207 78.046V78.046Z" fill="white"/>
<path d="M161.183 65.7206L140.291 53.1501C140.112 53.0658 139.907 53.0514 139.718 53.11C139.528 53.1685 139.368 53.2957 139.267 53.4666C139.166 53.6375 139.133 53.8398 139.174 54.0338C139.215 54.2278 139.327 54.3996 139.488 54.5154L160.374 67.0869C160.553 67.1713 160.757 67.1856 160.947 67.1271C161.136 67.0685 161.297 66.9414 161.398 66.7704C161.498 66.5995 161.531 66.3973 161.49 66.2032C161.449 66.0092 161.337 65.8375 161.176 65.7217H161.183V65.7206ZM160.318 70.8359L131.53 53.5079C131.35 53.4245 131.146 53.4109 130.958 53.4697C130.769 53.5286 130.609 53.6557 130.508 53.8262C130.408 53.9967 130.375 54.1985 130.416 54.392C130.456 54.5856 130.568 54.7571 130.728 54.8731L159.515 72.2011C159.694 72.2855 159.899 72.2998 160.088 72.2413C160.278 72.1827 160.438 72.0555 160.539 71.8846C160.639 71.7137 160.672 71.5114 160.631 71.3174C160.591 71.1234 160.479 70.9517 160.318 70.8359Z" fill="#F2F2F2"/>
<path d="M111.277 67.1493C107.97 69.9957 105.468 73.6614 104.022 77.7791C101.476 84.8131 107.844 96.3093 107.844 96.3093L117.751 88.4658" fill="#FF8F6F"/>
<path d="M110.209 160.159L107.52 158.675L108.224 154.834C108.224 154.834 112.228 155.214 112.579 156.635" fill="#003B94"/>
<path d="M111.193 160.102C111.798 159.731 112.432 159.399 113.058 159.069C114.613 158.218 116.858 157.338 117.815 155.741C118.011 155.418 118.104 155.043 118.081 154.666C118.058 154.289 117.921 153.928 117.688 153.631C116.281 151.929 113.198 154.728 111.623 152.843C111.314 152.47 111.165 146.553 111.165 146.553L105.17 148.172C105.17 148.172 104.157 160.061 104.27 160.793C104.381 161.523 106.443 162.2 106.443 162.2C107.058 162.069 107.644 161.831 108.175 161.496C108.801 161.039 108.231 155.46 109.033 156.241C109.836 157.022 110.187 160.075 110.187 160.075C110.521 160.125 110.859 160.134 111.193 160.102V160.102Z" fill="#F47B56"/>
<path d="M121.657 165.907L118.969 164.443L119.672 160.602C119.672 160.602 123.676 160.982 124.028 162.403" fill="#003B94"/>
<path d="M122.671 165.85C123.276 165.478 123.909 165.147 124.535 164.816C126.091 163.965 128.335 163.086 129.292 161.488C129.489 161.166 129.581 160.791 129.559 160.414C129.536 160.036 129.399 159.675 129.166 159.378C127.758 157.676 124.676 160.475 123.1 158.591C122.79 158.218 122.642 152.3 122.642 152.3L116.648 153.919C116.648 153.919 115.627 165.85 115.74 166.554C115.851 167.258 117.913 167.961 117.913 167.961C118.528 167.831 119.114 167.593 119.645 167.258C120.271 166.801 119.701 161.222 120.503 162.003C121.306 162.784 121.657 165.837 121.657 165.837C121.993 165.883 122.334 165.887 122.671 165.85Z" fill="#F47B56"/>
<path d="M102.123 127.257L100.357 150.873C100.357 150.873 103.171 154.756 112.609 152.597L112.7 136.677L102.123 127.257ZM113.023 131.936C112.819 133.968 113.023 156.396 113.023 156.396C113.023 156.396 115.634 161.277 126.999 156.396L126.837 137.338" fill="#3E2928"/>
<path d="M101.244 135.058C102.017 135.594 102.285 132.843 103.094 133.314C106.038 135.023 109.163 136.401 112.411 137.422H112.481C112.558 137.384 112.643 137.362 112.729 137.358C112.815 137.354 112.901 137.367 112.981 137.396C113.062 137.426 113.136 137.472 113.199 137.53C113.262 137.589 113.312 137.66 113.347 137.739C115.354 138.337 117.395 138.807 119.462 139.146C122.114 139.568 124.31 137.604 127.032 137.472C127.032 127.046 127.083 97.3716 122.642 91.0398L109.504 86.6225C109.441 87.7055 103.129 95.0218 103.284 103.943C103.459 113.996 102.151 123.478 101.925 126.623C101.89 127.158 101.271 134.489 101.244 135.058V135.058Z" fill="#3E2928"/>
<path d="M123.852 79.0524L122.642 91.0125C122.642 91.0125 112.841 91.4063 108.618 88.4931V78.349" fill="#FF8F6F"/>
<path d="M136.314 71.1805L135.316 72.5446C135.848 71.4346 136.318 70.2954 136.723 69.1326C137.005 68.3384 135.73 68.0212 135.449 68.8164L135.301 69.2245C135.424 68.8022 135.539 68.3778 135.646 67.9511C135.67 67.8667 135.676 67.7784 135.665 67.6914C135.653 67.6045 135.625 67.5207 135.581 67.445C135.536 67.3693 135.478 67.3032 135.407 67.2506C135.337 67.198 135.257 67.16 135.172 67.1388C135.087 67.1176 134.999 67.1137 134.912 67.1272C134.826 67.1408 134.743 67.1715 134.668 67.2177C134.594 67.2638 134.529 67.3244 134.478 67.3959C134.428 67.4674 134.392 67.5483 134.373 67.6339C134.097 68.7382 133.766 69.8281 133.381 70.8993C133.596 69.9484 133.751 68.9849 133.845 68.0146C133.93 67.1777 132.614 67.2127 132.536 68.0146C132.427 69.1195 132.23 70.2134 131.945 71.2855C131.945 70.9078 131.909 70.5309 131.839 70.1598C131.83 70.0665 131.8 69.9763 131.753 69.8952C131.706 69.814 131.642 69.7439 131.566 69.6894C131.53 69.5417 131.488 69.3957 131.439 69.2518C131.389 69.1044 131.289 68.9792 131.156 68.8983C131.023 68.8174 130.866 68.786 130.712 68.8095C130.558 68.833 130.417 68.91 130.315 69.0269C130.212 69.1438 130.154 69.2932 130.15 69.4487L130.066 74.3737C129.827 74.8845 129.518 75.3582 129.145 75.7816C129.777 76.2191 130.389 76.6895 130.974 77.1884C131.497 77.6292 131.995 78.0996 132.466 78.5952C132.888 78.0701 133.294 77.5351 133.684 76.9915C133.732 76.9503 133.774 76.9028 133.809 76.8503C134.982 75.1161 136.193 73.4084 137.441 71.7285C137.962 71.152 136.814 70.5121 136.314 71.1805V71.1805Z" fill="#FFB5A9"/>
<path d="M117.632 68.148C117.632 68.148 122.263 69.3929 124.141 72.3696C125.318 74.429 126.355 76.5651 127.245 78.7636L130.664 73.4526C130.664 73.4526 134.816 74.7259 136.462 76.7661C136.462 76.7661 131.537 87.5305 127.245 88.4516C122.952 89.3727 118.392 82.1341 118.392 82.1341C118.392 82.1341 117.45 85.1588 117.632 81.9295" fill="#FF8F6F"/>
<path d="M120.574 79.6508C119.228 78.5562 118.212 77.1096 117.639 75.472C117.083 73.5795 117.78 71.9189 118.426 70.1598C119.127 68.4165 119.537 66.5697 119.637 64.6934C119.694 62.8512 119.483 61.0068 119.356 59.1712C119.338 59.0927 119.338 59.0112 119.356 58.9327C118.737 56.8564 117.47 55.0984 114.972 54.8873C108.505 54.3382 108.139 61.5002 108.189 64.4123C108.237 67.3254 108.548 69.2945 106.402 70.5121C104.256 71.7285 102.707 74.9228 104.754 77.5045C106.802 80.0862 104.965 79.1443 103.6 81.4372C102.236 83.7312 102.587 86.5941 105.388 87.6289C108.188 88.6627 121.206 86.721 122.403 85.5176C122.828 85.033 123.047 84.4022 123.015 83.7586C122.723 82.1398 121.856 80.681 120.574 79.6508Z" fill="#007F68"/>
<path d="M126.935 20.5836C128.031 22.1607 128.665 24.0127 128.764 25.9307C128.887 26.8089 128.673 27.7009 128.166 28.4282C127.95 28.6654 127.661 28.824 127.345 28.8789C127.029 28.9338 126.704 28.8818 126.421 28.7312C126.065 28.5892 125.744 28.3729 125.478 28.0967C125.239 27.873 125.035 27.6149 124.873 27.331L124.705 27.0006C124.659 27.087 124.602 27.1669 124.535 27.2391C124.368 27.3704 124.168 27.4546 123.958 27.4852C123.606 27.5509 123.243 27.5071 122.917 27.3594C122.139 27.0229 121.492 26.4423 121.073 25.7054C120.568 24.9053 120.286 23.9849 120.257 23.0395C120.153 22.2737 120.392 21.5014 120.911 20.9282C121.134 20.7131 121.418 20.5721 121.724 20.5243C122.03 20.4765 122.344 20.5243 122.622 20.6612C122.904 20.7739 123.163 20.9358 123.387 21.1404C123.58 21.3034 123.751 21.4904 123.895 21.6961L124.022 21.9215V21.2946L125.429 21.8438L125.57 25.7973C125.58 26.0806 125.667 26.3552 125.823 26.5926C125.955 26.8212 126.157 27.0006 126.4 27.1067C127.081 27.3736 127.394 26.7873 127.343 25.3466C127.272 23.9206 126.801 22.5434 125.984 21.3723C125.25 20.1808 124.159 19.2507 122.867 18.714C122.398 18.4758 121.868 18.3838 121.346 18.4502C120.825 18.5165 120.335 18.738 119.94 19.086C119.52 19.5081 119.2 20.0194 119.004 20.582C118.807 21.1445 118.74 21.744 118.807 22.3361C118.888 23.8444 119.374 25.3029 120.215 26.5576C120.884 27.7967 121.939 28.7842 123.219 29.3712C123.665 29.5572 124.143 29.6501 124.627 29.6447C124.941 29.6665 125.256 29.6086 125.541 29.4762L125.823 29.322L126.675 30.9049L126.534 31.0033C126.4 31.0777 126.261 31.1445 126.118 31.2002C125.894 31.2976 125.657 31.3643 125.414 31.3972C125.104 31.4388 124.79 31.4388 124.479 31.3972C124.071 31.3484 123.672 31.2465 123.29 31.0941C122.207 30.6284 121.244 29.9212 120.475 29.0266C119.565 28.02 118.828 26.8692 118.294 25.6212C117.76 24.4296 117.454 23.1483 117.393 21.8438C117.317 20.7472 117.541 19.6506 118.04 18.6714C118.455 17.8495 119.171 17.2194 120.039 16.9123C120.948 16.6128 121.936 16.6627 122.811 17.0523C124.518 17.7739 125.96 19.0082 126.935 20.5847V20.5836ZM123.832 25.5862C124.062 25.2908 124.166 24.9167 124.12 24.5447C124.109 24.0861 123.981 23.6379 123.747 23.2429C123.556 22.8982 123.257 22.6263 122.895 22.4695C122.757 22.3984 122.6 22.371 122.445 22.3912C122.291 22.4113 122.147 22.4779 122.031 22.5822C121.909 22.7202 121.818 22.8828 121.765 23.0588C121.711 23.2349 121.696 23.4204 121.72 23.6028C121.737 24.0667 121.874 24.5174 122.122 24.9112C122.324 25.2678 122.638 25.5501 123.015 25.713C123.286 25.852 123.615 25.8006 123.832 25.5862V25.5862ZM210.019 96.76C211.116 98.336 211.75 100.188 211.848 102.106C211.971 102.984 211.757 103.876 211.25 104.604C211.034 104.84 210.745 104.998 210.429 105.053C210.113 105.108 209.788 105.056 209.505 104.907C209.15 104.763 208.829 104.546 208.562 104.272C208.324 104.047 208.12 103.789 207.957 103.506L207.788 103.176C207.74 103.261 207.683 103.341 207.619 103.414C207.452 103.546 207.253 103.632 207.042 103.661C206.693 103.731 206.331 103.689 206.007 103.541C205.229 103.203 204.582 102.62 204.164 101.881C203.655 101.08 203.37 100.157 203.34 99.2083C203.232 98.4425 203.471 97.668 203.995 97.097C204.217 96.8828 204.5 96.7422 204.804 96.6945C205.109 96.6467 205.421 96.694 205.698 96.8301C205.98 96.9416 206.24 97.1035 206.464 97.3081C206.657 97.4744 206.827 97.6636 206.972 97.8715L207.106 98.0957V97.47L208.512 98.0115L208.653 101.965C208.665 102.248 208.753 102.523 208.906 102.76C209.038 102.99 209.241 103.169 209.484 103.274C210.187 103.541 210.476 102.957 210.433 101.515C210.362 100.087 209.892 98.7077 209.076 97.5335C208.342 96.3462 207.254 95.4189 205.966 94.8818C205.497 94.6433 204.968 94.5506 204.446 94.6158C203.924 94.6809 203.434 94.9008 203.038 95.2471C202.62 95.6741 202.303 96.19 202.112 96.7563C201.921 97.3226 201.86 97.9248 201.933 98.518C202.012 100.026 202.498 101.485 203.34 102.74C204.036 103.949 205.102 104.904 206.381 105.462C206.827 105.648 207.305 105.743 207.788 105.743C208.102 105.762 208.416 105.704 208.703 105.574L208.984 105.42L209.836 107.003L209.694 107.101C209.561 107.177 209.422 107.242 209.279 107.298C209.053 107.391 208.817 107.457 208.576 107.495C208.263 107.536 207.946 107.536 207.633 107.495C207.227 107.443 206.83 107.339 206.451 107.185C205.369 106.721 204.406 106.017 203.637 105.124C202.725 104.115 201.988 102.962 201.454 101.711C200.92 100.52 200.614 99.239 200.554 97.9349C200.478 96.8404 200.702 95.7458 201.202 94.7691C201.617 93.9461 202.332 93.3138 203.2 93.0024C204.112 92.7064 205.102 92.7571 205.979 93.1446C207.667 93.9035 209.078 95.1665 210.019 96.76V96.76ZM206.915 101.762C207.148 101.467 207.254 101.093 207.211 100.72C207.198 100.261 207.068 99.8123 206.831 99.4183C206.644 99.0735 206.346 98.8013 205.986 98.6449C205.848 98.5726 205.692 98.5441 205.537 98.563C205.383 98.582 205.238 98.6476 205.121 98.751C204.998 98.8879 204.905 99.0499 204.85 99.2259C204.796 99.402 204.78 99.5878 204.804 99.7706C204.82 100.232 204.959 100.682 205.205 101.072C205.408 101.431 205.722 101.716 206.099 101.882C206.23 101.95 206.38 101.975 206.527 101.954C206.673 101.932 206.809 101.865 206.915 101.762" fill="#F47B56"/>
<path style="mix-blend-mode:multiply" opacity="0.25" d="M69.7888 126.757L45.9693 113.207L22.1564 126.785C22.1564 126.785 35.4073 135.058 47.2634 142.009C54.793 136.69 61.4847 130.605 69.7888 126.757V126.757Z" fill="url(#paint4_linear)"/>
<path d="M26.7707 88.6901V118.155L49.7259 131.301L75.6457 115.972V86.5077" fill="#FF9271"/>
<path d="M49.7259 101.837V131.302L75.6457 115.973V86.5077L49.7259 101.837Z" fill="#DF5C34"/>
<path d="M26.7707 88.6901L53.4048 73.5084L75.6446 86.5077L49.7259 101.837L26.7707 88.6901Z" fill="#F47B56"/>
<path d="M50.3352 80.2711C53.0359 80.0888 55.7324 80.6829 58.1066 81.9831C59.4663 82.7828 60.2091 83.6175 60.3141 84.4882C60.4192 85.3579 59.9707 86.1149 58.9128 86.7527C58.4109 87.0628 57.8579 87.2813 57.2796 87.3981C56.8048 87.5108 56.3169 87.5611 55.829 87.5458L55.2962 87.5042C55.3466 87.6235 55.3794 87.7482 55.3947 87.8762C55.3781 88.1789 55.2815 88.4719 55.1147 88.7251C54.8368 89.1955 54.4408 89.5849 53.966 89.854C52.8586 90.512 51.5893 90.8474 50.3013 90.8222C48.9685 90.8583 47.6516 90.5259 46.4955 89.8617C45.4027 89.2162 44.8426 88.4581 44.7999 87.5885C44.8041 87.1279 44.9377 86.6778 45.1855 86.2896C45.4333 85.9014 45.7853 85.5907 46.2012 85.3929C46.6006 85.1437 47.0354 84.9567 47.491 84.8383C47.8539 84.7335 48.2275 84.67 48.6046 84.649H48.9908L48.2896 84.2279L50.2587 83.0005L54.8204 85.6872C55.1692 85.8751 55.5592 85.9734 55.9553 85.9734C56.3515 85.9734 56.7415 85.8751 57.0903 85.6872C58.0574 85.0844 57.7117 84.2913 56.0532 83.309C54.2908 82.3383 52.2872 81.8926 50.2794 82.0247C48.1515 82.0508 46.0698 82.6493 44.2529 83.7575C42.6 84.7913 41.7806 86.0241 41.7938 87.455C41.7938 88.8585 42.6689 90.1067 44.3722 91.1099C46.2319 92.1491 48.3421 92.6523 50.4687 92.5626C52.5868 92.5975 54.6731 92.0438 56.4952 90.9633C57.1255 90.5893 57.6908 90.1153 58.1689 89.5597C58.4895 89.2206 58.729 88.8126 58.8701 88.3673L58.9686 87.9254L61.5678 88.072C61.5722 88.1518 61.5722 88.2317 61.5678 88.3116C61.5208 88.526 61.4573 88.7371 61.3786 88.9428C61.2659 89.2709 61.116 89.5882 60.93 89.8825C60.6631 90.2807 60.3535 90.6482 60.0057 90.9764C59.5462 91.4194 59.043 91.81 58.4993 92.1414C56.9349 93.0805 55.2021 93.7048 53.3983 93.9793C51.4324 94.3226 49.4251 94.358 47.4483 94.0843C45.6514 93.8727 43.9147 93.3052 42.3396 92.4149C41.0684 91.7414 40.0506 90.6729 39.4396 89.3705C39.1899 88.8023 39.0609 88.1884 39.0609 87.5677C39.0609 86.947 39.1899 86.3331 39.4396 85.7649C40.045 84.4382 41.0528 83.3359 42.3199 82.6143C44.7341 81.1305 47.502 80.3213 50.3352 80.2711ZM52.8863 87.525C52.8404 87.2853 52.7367 87.0603 52.5842 86.8697C52.4317 86.679 52.235 86.5285 52.0111 86.4311C51.4588 86.1058 50.8296 85.934 50.1886 85.9333C49.5933 85.9107 49.0042 86.0616 48.493 86.3676C48.073 86.5722 47.8028 86.9945 47.7929 87.4616C47.8564 87.9484 48.1703 88.3663 48.6188 88.5632C49.1834 88.8858 49.8252 89.0484 50.4753 89.0336C51.1002 89.0493 51.717 88.889 52.2551 88.5708C52.6631 88.3848 52.9224 87.9735 52.9147 87.525" fill="#3E2928"/>
</g>
<defs>
<linearGradient id="paint0_linear" x1="151.155" y1="111.001" x2="143.503" y2="121.369" gradientUnits="userSpaceOnUse">
<stop stop-color="#78B46A"/>
<stop offset="0.03" stop-color="#7F3500"/>
<stop offset="1" stop-color="white"/>
</linearGradient>
<linearGradient id="paint1_linear" x1="122.832" y1="156.232" x2="106.772" y2="173.838" gradientUnits="userSpaceOnUse">
<stop stop-color="#78B46A"/>
<stop offset="0.03" stop-color="#7F3500"/>
<stop offset="1" stop-color="white"/>
</linearGradient>
<linearGradient id="paint2_linear" x1="87.9299" y1="82.3561" x2="75.8935" y2="95.5532" gradientUnits="userSpaceOnUse">
<stop stop-color="#78B46A"/>
<stop offset="0.03" stop-color="#7F3500"/>
<stop offset="1" stop-color="white"/>
</linearGradient>
<linearGradient id="paint3_linear" x1="200.322" y1="82.5048" x2="193.103" y2="77.242" gradientUnits="userSpaceOnUse">
<stop stop-color="white" stop-opacity="0"/>
<stop offset="0.99" stop-color="#DC841E"/>
</linearGradient>
<linearGradient id="paint4_linear" x1="61.3021" y1="121.157" x2="45.0086" y2="139.02" gradientUnits="userSpaceOnUse">
<stop stop-color="#78B46A"/>
<stop offset="0.03" stop-color="#7F3500"/>
<stop offset="1" stop-color="white"/>
</linearGradient>
<clipPath id="clip0">
<rect width="266" height="196" fill="white"/>
</clipPath>
</defs>
</svg>
